<svg xmlns="http://www.w3.org/2000/svg" viewBox="0 0 220 170">
<defs><linearGradient id="g" x1="0" y1="0" x2="1" y2="1"><stop offset="0" stop-color="#0A3D62"/><stop offset="1" stop-color="#2E86AB"/></linearGradient><filter id="blur"><feGaussianBlur stdDeviation="9"/></filter></defs>
<rect width="220" height="170" rx="24" fill="url(#g)"/>
<circle cx="170" cy="28" r="48" fill="#A8DADC" opacity=".12" filter="url(#blur)"/><circle cx="45" cy="145" r="55" fill="#A8DADC" opacity=".10" filter="url(#blur)"/>
<g opacity=".96"><rect x="30" y="-312874145" width="22" height="312874275" rx="6" fill="#2E86AB" opacity="0.45"/><circle cx="41" cy="-312874153" r="4" fill="#A8DADC"/><rect x="68" y="-39109180" width="22" height="39109310" rx="6" fill="#2E86AB" opacity="0.55"/><circle cx="79" cy="-39109188" r="4" fill="#A8DADC"/><rect x="106" y="-4888560" width="22" height="4888690" rx="6" fill="#2E86AB" opacity="0.65"/><circle cx="117" cy="-4888568" r="4" fill="#A8DADC"/><rect x="144" y="-610982" width="22" height="611112" rx="6" fill="#2E86AB" opacity="0.75"/><circle cx="155" cy="-610990" r="4" fill="#A8DADC"/><rect x="182" y="-76285" width="22" height="76415" rx="6" fill="#2E86AB" opacity="0.45"/><circle cx="193" cy="-76293" r="4" fill="#A8DADC"/></g>
<rect x="14" y="14" width="76" height="22" rx="11" fill="#ffffff" opacity=".16"/><text x="52" y="29" text-anchor="middle" font-family="Arial,sans-serif" font-size="9" font-weight="700" fill="#ffffff" letter-spacing="1">CSBP320</text>
<path d="M15 153 C65 132,145 165,205 140" fill="none" stroke="#ffffff" stroke-opacity=".14" stroke-width="2"/>
</svg>