<svg xmlns="http://www.w3.org/2000/svg" viewBox="0 0 220 170">
<defs><linearGradient id="g" x1="0" y1="0" x2="1" y2="1"><stop offset="0" stop-color="#174E4F"/><stop offset="1" stop-color="#2A9D8F"/></linearGradient><filter id="blur"><feGaussianBlur stdDeviation="9"/></filter></defs>
<rect width="220" height="170" rx="24" fill="url(#g)"/>
<circle cx="170" cy="28" r="48" fill="#B7E4C7" opacity=".12" filter="url(#blur)"/><circle cx="45" cy="145" r="55" fill="#B7E4C7" opacity=".10" filter="url(#blur)"/>
<g opacity=".96"><path d="M24 106h18v12h15" fill="none" stroke="#2A9D8F" stroke-width="3" stroke-linecap="round"/><circle cx="62" cy="118" r="4" fill="#B7E4C7"/><path d="M43 123h18v12h15" fill="none" stroke="#2A9D8F" stroke-width="3" stroke-linecap="round"/><circle cx="81" cy="135" r="4" fill="#B7E4C7"/><path d="M70 131h18v12h15" fill="none" stroke="#2A9D8F" stroke-width="3" stroke-linecap="round"/><circle cx="108" cy="143" r="4" fill="#B7E4C7"/><path d="M93 78h18v12h15" fill="none" stroke="#2A9D8F" stroke-width="3" stroke-linecap="round"/><circle cx="131" cy="90" r="4" fill="#B7E4C7"/><path d="M113 51h18v12h15" fill="none" stroke="#2A9D8F" stroke-width="3" stroke-linecap="round"/><circle cx="151" cy="63" r="4" fill="#B7E4C7"/><path d="M139 95h18v12h15" fill="none" stroke="#2A9D8F" stroke-width="3" stroke-linecap="round"/><circle cx="177" cy="107" r="4" fill="#B7E4C7"/><path d="M157 117h18v12h15" fill="none" stroke="#2A9D8F" stroke-width="3" stroke-linecap="round"/><circle cx="195" cy="129" r="4" fill="#B7E4C7"/><path d="M185 128h18v12h15" fill="none" stroke="#2A9D8F" stroke-width="3" stroke-linecap="round"/><circle cx="223" cy="140" r="4" fill="#B7E4C7"/><path d="M208 134h18v12h15" fill="none" stroke="#2A9D8F" stroke-width="3" stroke-linecap="round"/><circle cx="246" cy="146" r="4" fill="#B7E4C7"/></g>
<rect x="14" y="14" width="76" height="22" rx="11" fill="#ffffff" opacity=".16"/><text x="52" y="29" text-anchor="middle" font-family="Arial,sans-serif" font-size="9" font-weight="700" fill="#ffffff" letter-spacing="1">CSBP461</text>
<path d="M15 153 C65 132,145 165,205 140" fill="none" stroke="#ffffff" stroke-opacity=".14" stroke-width="2"/>
</svg>