<svg xmlns="http://www.w3.org/2000/svg" viewBox="0 0 220 170">
<defs><linearGradient id="g" x1="0" y1="0" x2="1" y2="1"><stop offset="0" stop-color="#5A3D00"/><stop offset="1" stop-color="#C88A00"/></linearGradient><filter id="blur"><feGaussianBlur stdDeviation="9"/></filter></defs>
<rect width="220" height="170" rx="24" fill="url(#g)"/>
<circle cx="170" cy="28" r="48" fill="#FFE08A" opacity=".12" filter="url(#blur)"/><circle cx="45" cy="145" r="55" fill="#FFE08A" opacity=".10" filter="url(#blur)"/>
<g opacity=".96"><circle cx="25" cy="128" r="5" fill="#FFE08A" opacity=".7"/><circle cx="25" cy="128" r="12" fill="none" stroke="#C88A00" stroke-width="2" opacity=".65"/><circle cx="56" cy="70" r="8" fill="#FFE08A" opacity=".7"/><circle cx="56" cy="70" r="16" fill="none" stroke="#C88A00" stroke-width="2" opacity=".65"/><circle cx="87" cy="117" r="11" fill="#FFE08A" opacity=".7"/><circle cx="87" cy="117" r="20" fill="none" stroke="#C88A00" stroke-width="2" opacity=".65"/><circle cx="118" cy="59" r="14" fill="#FFE08A" opacity=".7"/><circle cx="118" cy="59" r="12" fill="none" stroke="#C88A00" stroke-width="2" opacity=".65"/><circle cx="149" cy="106" r="5" fill="#FFE08A" opacity=".7"/><circle cx="149" cy="106" r="16" fill="none" stroke="#C88A00" stroke-width="2" opacity=".65"/><circle cx="180" cy="48" r="8" fill="#FFE08A" opacity=".7"/><circle cx="180" cy="48" r="20" fill="none" stroke="#C88A00" stroke-width="2" opacity=".65"/><circle cx="31" cy="95" r="11" fill="#FFE08A" opacity=".7"/><circle cx="31" cy="95" r="12" fill="none" stroke="#C88A00" stroke-width="2" opacity=".65"/></g>
<rect x="14" y="14" width="76" height="22" rx="11" fill="#ffffff" opacity=".16"/><text x="52" y="29" text-anchor="middle" font-family="Arial,sans-serif" font-size="9" font-weight="700" fill="#ffffff" letter-spacing="1">CSBP315</text>
<path d="M15 153 C65 132,145 165,205 140" fill="none" stroke="#ffffff" stroke-opacity=".14" stroke-width="2"/>
</svg>