<svg xmlns="http://www.w3.org/2000/svg" viewBox="0 0 220 170">
<defs><linearGradient id="g" x1="0" y1="0" x2="1" y2="1"><stop offset="0" stop-color="#3C096C"/><stop offset="1" stop-color="#7B2CBF"/></linearGradient><filter id="blur"><feGaussianBlur stdDeviation="9"/></filter></defs>
<rect width="220" height="170" rx="24" fill="url(#g)"/>
<circle cx="170" cy="28" r="48" fill="#C77DFF" opacity=".12" filter="url(#blur)"/><circle cx="45" cy="145" r="55" fill="#C77DFF" opacity=".10" filter="url(#blur)"/>
<g opacity=".96"><polygon points="25,35 53,35 63,63 35,63" fill="none" stroke="#7B2CBF" stroke-width="3"/><circle cx="44" cy="49" r="4" fill="#C77DFF"/><polygon points="67,70 95,70 105,98 77,98" fill="none" stroke="#7B2CBF" stroke-width="3"/><circle cx="86" cy="84" r="4" fill="#C77DFF"/><polygon points="109,35 137,35 147,63 119,63" fill="none" stroke="#7B2CBF" stroke-width="3"/><circle cx="128" cy="49" r="4" fill="#C77DFF"/><polygon points="151,70 179,70 189,98 161,98" fill="none" stroke="#7B2CBF" stroke-width="3"/><circle cx="170" cy="84" r="4" fill="#C77DFF"/><polygon points="193,35 221,35 231,63 203,63" fill="none" stroke="#7B2CBF" stroke-width="3"/><circle cx="212" cy="49" r="4" fill="#C77DFF"/></g>
<rect x="14" y="14" width="76" height="22" rx="11" fill="#ffffff" opacity=".16"/><text x="52" y="29" text-anchor="middle" font-family="Arial,sans-serif" font-size="9" font-weight="700" fill="#ffffff" letter-spacing="1">STAT210</text>
<path d="M15 153 C65 132,145 165,205 140" fill="none" stroke="#ffffff" stroke-opacity=".14" stroke-width="2"/>
</svg>